<svg width="500" height="500" viewBox="0 0 500 500" fill="none" xmlns="http://www.w3.org/2000/svg">
<path d="M296.453 262.164H204.55C189.621 262.164 177.52 274.266 177.52 289.194V294.6C177.52 309.529 189.621 321.631 204.55 321.631H296.453C311.381 321.631 323.483 309.529 323.483 294.6V289.194C323.483 274.266 311.381 262.164 296.453 262.164Z" fill="#1A0830"/>
<path d="M145.082 316.225C139.676 352.265 137.874 384.701 139.676 413.534C145.082 453.178 182.023 473 250.5 473C318.977 473 355.918 453.178 361.324 413.534C363.126 384.701 361.324 352.265 355.918 316.225H145.082Z" fill="#1A0830"/>
<path d="M318.073 235.133H182.921C172.471 235.133 164 243.604 164 254.054C164 264.504 172.471 272.975 182.921 272.975H318.073C328.522 272.975 336.994 264.504 336.994 254.054C336.994 243.604 328.522 235.133 318.073 235.133Z" fill="#1A0830"/>
<path opacity="0.18" d="M159.499 362.175C155.895 389.205 154.994 411.73 156.796 429.75C162.202 451.375 193.737 462.187 251.402 462.187C309.066 462.187 340.601 451.375 346.007 429.75C347.81 411.73 346.908 389.205 343.304 362.175H159.499Z" fill="#FFE566"/>
<path d="M255.906 127.013H245.093C240.615 127.013 236.984 130.643 236.984 135.122V232.431C236.984 236.909 240.615 240.54 245.093 240.54H255.906C260.384 240.54 264.015 236.909 264.015 232.431V135.122C264.015 130.643 260.384 127.013 255.906 127.013Z" fill="#1A0830"/>
<path d="M266.717 89.1699H234.281C228.309 89.1699 223.469 94.0107 223.469 99.982V127.012C223.469 132.984 228.309 137.824 234.281 137.824H266.717C272.689 137.824 277.529 132.984 277.529 127.012V99.982C277.529 94.0107 272.689 89.1699 266.717 89.1699Z" fill="#1A0830"/>
<path d="M215.359 94.5751C238.786 54.9307 262.212 54.9307 285.638 94.5751H215.359Z" fill="#DE909F"/>
<path d="M252.662 29.4327C252.662 28.0892 251.573 27 250.23 27C248.886 27 247.797 28.0892 247.797 29.4327V51.5975C247.797 52.9411 248.886 54.0303 250.23 54.0303C251.573 54.0303 252.662 52.9411 252.662 51.5975V29.4327Z" fill="#1A0830"/>
<path d="M252.66 29.7041L272.122 39.1647L252.66 48.6253V29.7041Z" fill="#1A0830"/>
<path opacity="0.5" d="M258.605 109.636C258.605 104.305 254.974 99.9824 250.496 99.9824C246.017 99.9824 242.387 104.305 242.387 109.636V117.359C242.387 122.691 246.017 127.013 250.496 127.013C254.974 127.013 258.605 122.691 258.605 117.359V109.636Z" fill="#FFE566"/>
<path d="M191.035 172.963L194.008 183.505L204.55 186.478L194.008 189.451L191.035 199.993L188.061 189.451L177.52 186.478L188.061 183.505L191.035 172.963Z" fill="#DE909F"/>
<path d="M326.179 56.7344L328.612 65.1138L336.991 67.5465L328.612 69.9792L326.179 78.3586L323.747 69.9792L315.367 67.5465L323.747 65.1138L326.179 56.7344Z" fill="#DE909F"/>
<path d="M192.389 283.787C180.216 294.599 176.145 274.326 182.917 274.326H318.069C320.772 274.326 321.827 278.693 322.124 279.732C324.827 289.193 322.124 281.084 316.718 283.787C311.312 286.49 307.268 285.138 297.807 281.084C288.346 277.029 288.346 281.084 278.886 283.787C269.425 286.49 269.425 283.787 259.965 281.084C250.504 278.381 247.801 281.084 241.043 283.787C234.286 286.49 224.825 283.787 216.716 281.084C208.607 278.381 198.535 278.327 192.389 283.787Z" fill="#FFD81B" stroke="#FFD81B" stroke-width="2.70303"/>
</svg>
