<svg width="1016" height="500" viewBox="0 0 1016 500" fill="none" xmlns="http://www.w3.org/2000/svg">
<path d="M356.599 298V293.289C360.062 293.128 362.599 292.805 364.21 292.322C365.82 291.839 366.907 290.873 367.471 289.423C368.035 287.973 368.317 285.799 368.317 282.9V227.572C368.317 224.592 368.035 222.418 367.471 221.049C366.907 219.679 365.82 218.713 364.21 218.149C362.599 217.586 360.062 217.263 356.599 217.183V212.472C358.854 212.552 361.793 212.633 365.418 212.713C369.122 212.794 373.189 212.834 377.619 212.834C382.531 212.834 386.84 212.794 390.545 212.713C394.33 212.633 397.31 212.552 399.484 212.472V217.183C395.699 217.263 392.88 217.586 391.028 218.149C389.256 218.632 388.088 219.599 387.524 221.049C386.961 222.418 386.679 224.592 386.679 227.572V282.9C386.679 285.799 386.961 287.973 387.524 289.423C388.088 290.792 389.256 291.759 391.028 292.322C392.88 292.805 395.699 293.128 399.484 293.289V298C397.31 297.839 394.33 297.758 390.545 297.758C386.84 297.678 382.531 297.638 377.619 297.638C373.109 297.638 369.042 297.678 365.418 297.758C361.793 297.758 358.854 297.839 356.599 298ZM301.03 298V293.289C304.815 293.128 307.593 292.805 309.365 292.322C311.217 291.839 312.425 290.873 312.989 289.423C313.553 287.973 313.835 285.799 313.835 282.9V227.572C313.835 224.592 313.553 222.418 312.989 221.049C312.425 219.679 311.217 218.713 309.365 218.149C307.593 217.586 304.815 217.263 301.03 217.183V212.472C303.204 212.552 306.224 212.633 310.09 212.713C313.956 212.794 318.385 212.834 323.378 212.834C327.727 212.834 331.673 212.794 335.217 212.713C338.841 212.633 341.7 212.552 343.794 212.472V217.183C340.411 217.263 337.874 217.586 336.183 218.149C334.573 218.632 333.485 219.599 332.922 221.049C332.438 222.418 332.197 224.592 332.197 227.572V282.9C332.197 285.799 332.438 287.973 332.922 289.423C333.485 290.792 334.573 291.759 336.183 292.322C337.874 292.805 340.411 293.128 343.794 293.289V298C341.7 297.839 338.841 297.758 335.217 297.758C331.593 297.678 327.566 297.638 323.137 297.638C318.143 297.638 313.754 297.678 309.969 297.758C306.184 297.758 303.204 297.839 301.03 298ZM324.828 257.41V252.699H375.686V257.41H324.828ZM440.364 299.691C434.324 299.691 428.969 298.523 424.298 296.188C419.627 293.772 415.962 290.148 413.305 285.316C410.647 280.403 409.318 274.242 409.318 266.833C409.318 259.424 410.647 253.263 413.305 248.35C415.962 243.437 419.627 239.813 424.298 237.478C428.969 235.062 434.324 233.854 440.364 233.854C446.485 233.854 451.841 235.062 456.431 237.478C461.022 239.813 464.646 243.437 467.303 248.35C469.961 253.263 471.29 259.424 471.29 266.833C471.29 274.242 469.961 280.403 467.303 285.316C464.646 290.148 461.022 293.772 456.431 296.188C451.841 298.523 446.485 299.691 440.364 299.691ZM440.364 294.98C444.23 294.98 447.411 292.765 449.908 288.336C452.485 283.826 453.774 276.658 453.774 266.833C453.774 256.846 452.485 249.639 449.908 245.209C447.411 240.699 444.23 238.444 440.364 238.444C436.418 238.444 433.197 240.699 430.7 245.209C428.204 249.639 426.955 256.846 426.955 266.833C426.955 276.658 428.204 283.826 430.7 288.336C433.197 292.765 436.418 294.98 440.364 294.98ZM524.615 298V293.289C527.595 293.208 529.608 292.564 530.655 291.356C531.783 290.067 532.346 287.812 532.346 284.591V254.632C532.346 250.283 531.461 247.021 529.689 244.847C527.998 242.672 525.461 241.585 522.078 241.585C519.421 241.585 516.964 242.35 514.709 243.88C512.454 245.41 510.521 247.625 508.911 250.524V245.209C510.924 241.585 513.662 238.807 517.125 236.874C520.669 234.86 524.696 233.854 529.206 233.854C535.648 233.854 540.561 235.786 543.944 239.652C547.326 243.437 549.017 248.914 549.017 256.081V284.591C549.017 287.812 549.863 290.067 551.554 291.356C553.245 292.564 556.225 293.208 560.494 293.289V298C559.285 297.919 557.594 297.879 555.42 297.879C553.326 297.799 550.99 297.718 548.413 297.638C545.917 297.557 543.46 297.517 541.044 297.517C537.903 297.517 534.762 297.597 531.622 297.758C528.481 297.839 526.145 297.919 524.615 298ZM481.368 298V293.289C485.716 293.208 488.696 292.564 490.307 291.356C491.998 290.067 492.844 287.812 492.844 284.591V250.887C492.844 247.102 491.958 244.444 490.186 242.914C488.495 241.303 485.555 240.417 481.368 240.256V235.545C483.059 235.625 484.75 235.706 486.441 235.786C488.133 235.867 489.864 235.907 491.636 235.907C495.099 235.907 498.32 235.786 501.3 235.545C504.28 235.223 507.018 234.78 509.515 234.216V284.591C509.515 287.812 510.078 290.067 511.206 291.356C512.333 292.564 514.347 293.208 517.246 293.289V298C515.555 297.919 513.26 297.839 510.36 297.758C507.461 297.597 504.441 297.517 501.3 297.517C497.757 297.517 494.092 297.597 490.307 297.758C486.602 297.839 483.623 297.919 481.368 298ZM598.632 299.691C592.592 299.691 587.317 298.403 582.807 295.826C578.378 293.168 574.955 289.383 572.539 284.47C570.123 279.557 568.915 273.719 568.915 266.954C568.915 259.867 570.203 253.867 572.78 248.954C575.358 244.041 578.982 240.296 583.653 237.719C588.324 235.142 593.8 233.854 600.082 233.854C605.719 233.854 610.511 234.901 614.458 236.995C618.404 239.008 621.384 242.189 623.397 246.538C625.41 250.887 626.336 256.524 626.175 263.45H580.874L580.753 258.86H611.075C611.156 254.914 610.793 251.451 609.988 248.471C609.263 245.41 608.055 242.994 606.364 241.223C604.672 239.451 602.458 238.565 599.72 238.565C596.257 238.565 593.277 240.256 590.78 243.639C588.364 247.021 586.914 252.377 586.431 259.705L586.673 260.189C586.592 260.914 586.552 261.719 586.552 262.605C586.552 263.491 586.552 264.497 586.552 265.625C586.552 273.598 588.042 279.839 591.022 284.349C594.082 288.859 598.512 291.114 604.31 291.114C608.256 291.114 611.679 290.148 614.578 288.215C617.558 286.202 620.055 283.141 622.068 279.034L626.417 281.45C624.081 287.329 620.538 291.839 615.786 294.98C611.035 298.121 605.317 299.691 598.632 299.691ZM668.149 304.161L642.418 248.108C641.21 245.451 639.72 243.518 637.948 242.31C636.176 241.102 633.881 240.417 631.062 240.256V235.545C633.962 235.706 636.861 235.827 639.76 235.907C642.74 235.988 646.082 236.028 649.787 236.028C653.491 236.028 656.713 235.988 659.451 235.907C662.27 235.827 664.968 235.706 667.545 235.545V240.256C663.76 240.417 661.384 241.263 660.417 242.793C659.451 244.243 659.773 246.78 661.384 250.404L676.243 283.02L673.585 284.349L683.491 258.497C684.94 254.793 685.625 251.652 685.544 249.075C685.544 246.498 684.82 244.484 683.37 243.035C681.92 241.505 679.746 240.578 676.847 240.256V235.545C678.699 235.625 680.43 235.706 682.041 235.786C683.732 235.867 685.343 235.907 686.873 235.907C688.403 235.907 689.893 235.907 691.343 235.907C693.356 235.907 695.49 235.867 697.745 235.786C700.081 235.706 702.094 235.625 703.786 235.545V240.256C700.484 240.981 697.786 242.431 695.692 244.605C693.598 246.78 691.665 250.202 689.893 254.873L671.048 304.161H668.149ZM650.874 327.597C646.606 327.597 643.183 326.55 640.606 324.456C638.029 322.362 636.74 319.583 636.74 316.12C636.74 313.302 637.626 311.006 639.398 309.235C641.169 307.543 643.465 306.698 646.283 306.698C648.377 306.698 650.028 307.181 651.236 308.147C652.444 309.194 653.048 310.564 653.048 312.255C653.048 313.382 652.847 314.429 652.444 315.396C652.042 316.362 651.599 317.248 651.116 318.053C650.713 318.939 650.512 319.825 650.512 320.711C650.512 322.08 651.357 322.765 653.048 322.765C654.981 322.765 656.672 322.12 658.122 320.832C659.652 319.543 660.901 317.61 661.867 315.033L669.719 294.859L673.826 296.55L666.578 315.516C665.531 318.174 664.283 320.389 662.833 322.161C661.464 324.013 659.813 325.382 657.88 326.268C655.948 327.154 653.612 327.597 650.874 327.597Z" fill="#1A0830"/>
<path d="M705.946 298V293.289C709.651 293.128 712.389 292.805 714.161 292.322C716.013 291.759 717.221 290.792 717.785 289.423C718.429 287.973 718.751 285.799 718.751 282.9V227.572C718.751 224.673 718.429 222.538 717.785 221.169C717.221 219.72 716.013 218.713 714.161 218.149C712.389 217.586 709.651 217.263 705.946 217.183V212.472C706.993 212.552 708.402 212.633 710.174 212.713C711.946 212.713 714.161 212.713 716.818 212.713C719.556 212.713 722.738 212.713 726.362 212.713C731.677 212.713 736.066 212.713 739.529 212.713C743.073 212.633 745.771 212.592 747.623 212.592C758.817 212.592 767.354 214.767 773.233 219.116C779.112 223.384 782.052 229.585 782.052 237.719C782.052 243.357 780.602 248.189 777.703 252.216C774.804 256.242 770.616 259.343 765.139 261.518C759.663 263.611 753.059 264.658 745.328 264.658C743.636 264.658 741.945 264.618 740.254 264.538C738.563 264.377 736.992 264.175 735.543 263.934C734.093 263.611 732.845 263.33 731.798 263.088V258.377C733.328 258.86 735.059 259.263 736.992 259.585C739.006 259.826 741.1 259.947 743.274 259.947C750.039 259.947 754.992 258.216 758.133 254.753C761.274 251.209 762.844 245.692 762.844 238.203C762.844 230.954 761.435 225.639 758.616 222.257C755.878 218.874 751.569 217.183 745.69 217.183H737.113V282.537C737.113 285.517 737.475 287.772 738.2 289.302C739.006 290.752 740.576 291.759 742.912 292.322C745.328 292.886 748.911 293.208 753.663 293.289V298C752.133 297.919 750.12 297.879 747.623 297.879C745.126 297.799 742.227 297.758 738.925 297.758C735.704 297.678 732.2 297.638 728.415 297.638C723.583 297.638 719.315 297.678 715.61 297.758C711.906 297.839 708.684 297.919 705.946 298ZM835.548 221.454C833.251 221.454 830.804 222.853 828.208 225.649C825.711 228.345 823.215 231.99 820.718 236.584C818.321 241.178 816.124 246.321 814.127 252.013C812.23 257.705 810.682 263.597 809.483 269.689C808.385 275.68 807.836 281.423 807.836 286.915C807.836 290.51 808.235 293.107 809.034 294.704C809.933 296.302 811.231 297.101 812.929 297.101C815.226 297.101 817.622 295.803 820.119 293.207C822.616 290.51 825.062 286.915 827.459 282.421C829.856 277.927 832.003 272.884 833.9 267.292C835.897 261.6 837.495 255.708 838.694 249.616C839.892 243.524 840.491 237.632 840.491 231.94C840.491 227.746 840.042 224.95 839.143 223.552C838.344 222.153 837.146 221.454 835.548 221.454ZM787.763 275.381C787.763 270.787 788.362 265.894 789.561 260.701C790.859 255.508 792.806 250.415 795.403 245.422C797.999 240.429 801.195 235.935 804.99 231.94C808.884 227.846 813.428 224.6 818.621 222.203C823.914 219.707 829.806 218.459 836.297 218.459C843.986 218.459 849.928 220.556 854.123 224.75C858.417 228.944 860.564 235.086 860.564 243.175C860.564 247.769 859.915 252.662 858.616 257.855C857.418 263.048 855.521 268.141 852.924 273.134C850.328 278.127 847.082 282.671 843.188 286.765C839.393 290.76 834.849 294.005 829.556 296.502C824.363 298.899 818.521 300.097 812.03 300.097C804.341 300.097 798.349 298 794.055 293.806C789.86 289.611 787.763 283.47 787.763 275.381ZM925.47 220.556L925.02 223.552H873.041L873.79 220.556H925.47ZM889.818 285.267C889.119 287.864 889.169 289.761 889.968 290.96C890.867 292.158 892.165 292.757 893.863 292.757C895.96 292.757 898.057 291.709 900.154 289.611C902.251 287.514 904.099 284.269 905.697 279.875L907.944 273.733H910.79L907.794 282.421C905.797 288.413 902.851 292.857 898.956 295.753C895.161 298.649 890.617 300.097 885.325 300.097C880.731 300.097 877.186 299.049 874.689 296.951C872.192 294.854 870.694 292.008 870.195 288.413C869.796 284.718 870.195 280.674 871.394 276.28L893.863 198.236C898.157 198.136 902.052 197.937 905.547 197.637C909.042 197.337 912.388 196.838 915.583 196.139L889.818 285.267Z" fill="#DE909F"/>
<path d="M225.248 260.054H150.974C138.909 260.054 129.129 269.834 129.129 281.899V286.268C129.129 298.333 138.909 308.113 150.974 308.113H225.248C237.313 308.113 247.093 298.333 247.093 286.268V281.899C247.093 269.834 237.313 260.054 225.248 260.054Z" fill="#1A0830"/>
<path d="M102.915 303.744C98.5461 332.871 97.0898 359.085 98.5461 382.387C102.915 414.426 132.77 430.446 188.111 430.446C243.453 430.446 273.308 414.426 277.677 382.387C279.133 359.085 277.677 332.871 273.308 303.744H102.915Z" fill="#1A0830"/>
<path d="M242.721 238.208H133.495C125.049 238.208 118.203 245.054 118.203 253.5C118.203 261.945 125.049 268.791 133.495 268.791H242.721C251.166 268.791 258.012 261.945 258.012 253.5C258.012 245.054 251.166 238.208 242.721 238.208Z" fill="#1A0830"/>
<path opacity="0.18" d="M114.565 340.88C111.652 362.725 110.924 380.929 112.381 395.493C116.75 412.969 142.236 421.707 188.839 421.707C235.442 421.707 260.928 412.969 265.297 395.493C266.753 380.929 266.025 362.725 263.112 340.88H114.565Z" fill="#FFE566"/>
<path d="M192.479 150.828H183.741C180.122 150.828 177.188 153.762 177.188 157.382V236.024C177.188 239.644 180.122 242.578 183.741 242.578H192.479C196.099 242.578 199.033 239.644 199.033 236.024V157.382C199.033 153.762 196.099 150.828 192.479 150.828Z" fill="#1A0830"/>
<path d="M201.218 120.244H175.004C170.178 120.244 166.266 124.156 166.266 128.982V150.827C166.266 155.653 170.178 159.565 175.004 159.565H201.218C206.044 159.565 209.956 155.653 209.956 150.827V128.982C209.956 124.156 206.044 120.244 201.218 120.244Z" fill="#1A0830"/>
<path d="M159.711 124.613C178.643 92.5731 197.576 92.5731 216.508 124.613H159.711Z" fill="#DE909F"/>
<path d="M189.858 71.9661C189.858 70.8802 188.978 70 187.892 70C186.806 70 185.926 70.8802 185.926 71.9661V89.8791C185.926 90.965 186.806 91.8452 187.892 91.8452C188.978 91.8452 189.858 90.965 189.858 89.8791V71.9661Z" fill="#1A0830"/>
<path d="M189.855 72.1855L205.584 79.8314L189.855 87.4772V72.1855Z" fill="#1A0830"/>
<path opacity="0.5" d="M194.662 136.784C194.662 132.475 191.728 128.982 188.108 128.982C184.489 128.982 181.555 132.475 181.555 136.784V143.026C181.555 147.335 184.489 150.828 188.108 150.828C191.728 150.828 194.662 147.335 194.662 143.026V136.784Z" fill="#FFE566"/>
<path d="M140.052 187.964L142.454 196.483L150.974 198.886L142.454 201.289L140.052 209.809L137.649 201.289L129.129 198.886L137.649 196.483L140.052 187.964Z" fill="#DE909F"/>
<path d="M249.273 94.0303L251.239 100.802L258.011 102.768L251.239 104.734L249.273 111.506L247.307 104.734L240.535 102.768L247.307 100.802L249.273 94.0303Z" fill="#DE909F"/>
<path d="M141.146 277.529C131.308 286.267 128.018 269.883 133.491 269.883H242.717C244.902 269.883 245.754 273.412 245.994 274.252C248.179 281.898 245.994 275.344 241.625 277.529C237.256 279.713 233.988 278.621 226.342 275.344C218.696 272.067 218.696 275.344 211.05 277.529C203.404 279.713 203.404 277.529 195.759 275.344C188.113 273.16 185.928 275.344 180.467 277.529C175.006 279.713 167.36 277.529 160.806 275.344C154.253 273.16 146.113 273.117 141.146 277.529Z" fill="#FFD81B" stroke="#FFD81B" stroke-width="2.18452"/>
</svg>
