<svg width="500" height="500" viewBox="0 0 500 500" fill="none" xmlns="http://www.w3.org/2000/svg">
<path d="M70.7597 446V442.627C73.2389 442.512 75.055 442.281 76.2081 441.935C77.3612 441.589 78.1395 440.898 78.5431 439.86C78.9467 438.822 79.1485 437.265 79.1485 435.19V395.581C79.1485 393.448 78.9467 391.891 78.5431 390.911C78.1395 389.931 77.3612 389.239 76.2081 388.836C75.055 388.432 73.2389 388.201 70.7597 388.144V384.771C72.3741 384.829 74.4785 384.886 77.0729 384.944C79.725 385.002 82.6366 385.03 85.8076 385.03C89.3245 385.03 92.409 385.002 95.0611 384.944C97.7709 384.886 99.9041 384.829 101.461 384.771V388.144C98.751 388.201 96.7331 388.432 95.407 388.836C94.1386 389.182 93.3026 389.873 92.8991 390.911C92.4955 391.891 92.2937 393.448 92.2937 395.581V435.19C92.2937 437.265 92.4955 438.822 92.8991 439.86C93.3026 440.84 94.1386 441.532 95.407 441.935C96.7331 442.281 98.751 442.512 101.461 442.627V446C99.9041 445.885 97.7709 445.827 95.0611 445.827C92.409 445.769 89.3245 445.741 85.8076 445.741C82.5789 445.741 79.6674 445.769 77.0729 445.827C74.4785 445.827 72.3741 445.885 70.7597 446ZM30.9782 446V442.627C33.6879 442.512 35.677 442.281 36.9454 441.935C38.2714 441.589 39.1363 440.898 39.5398 439.86C39.9434 438.822 40.1452 437.265 40.1452 435.19V395.581C40.1452 393.448 39.9434 391.891 39.5398 390.911C39.1363 389.931 38.2714 389.239 36.9454 388.836C35.677 388.432 33.6879 388.201 30.9782 388.144V384.771C32.5348 384.829 34.6969 384.886 37.4643 384.944C40.2317 385.002 43.4027 385.03 46.9773 385.03C50.0906 385.03 52.9157 385.002 55.4525 384.944C58.0469 384.886 60.0937 384.829 61.5927 384.771V388.144C59.1712 388.201 57.3551 388.432 56.1443 388.836C54.9912 389.182 54.2129 389.873 53.8093 390.911C53.4634 391.891 53.2904 393.448 53.2904 395.581V435.19C53.2904 437.265 53.4634 438.822 53.8093 439.86C54.2129 440.84 54.9912 441.532 56.1443 441.935C57.3551 442.281 59.1712 442.512 61.5927 442.627V446C60.0937 445.885 58.0469 445.827 55.4525 445.827C52.858 445.769 49.9753 445.741 46.8043 445.741C43.2297 445.741 40.0876 445.769 37.3778 445.827C34.668 445.827 32.5348 445.885 30.9782 446ZM48.0151 416.942V413.569H84.4238V416.942H48.0151ZM130.727 447.211C126.403 447.211 122.569 446.375 119.225 444.703C115.881 442.973 113.257 440.379 111.355 436.919C109.452 433.402 108.501 428.992 108.501 423.688C108.501 418.384 109.452 413.973 111.355 410.456C113.257 406.939 115.881 404.345 119.225 402.673C122.569 400.943 126.403 400.078 130.727 400.078C135.108 400.078 138.942 400.943 142.229 402.673C145.515 404.345 148.11 406.939 150.012 410.456C151.915 413.973 152.866 418.384 152.866 423.688C152.866 428.992 151.915 433.402 150.012 436.919C148.11 440.379 145.515 442.973 142.229 444.703C138.942 446.375 135.108 447.211 130.727 447.211ZM130.727 443.838C133.494 443.838 135.771 442.252 137.559 439.081C139.404 435.853 140.326 430.722 140.326 423.688C140.326 416.539 139.404 411.378 137.559 408.207C135.771 404.979 133.494 403.365 130.727 403.365C127.902 403.365 125.595 404.979 123.808 408.207C122.021 411.378 121.127 416.539 121.127 423.688C121.127 430.722 122.021 435.853 123.808 439.081C125.595 442.252 127.902 443.838 130.727 443.838ZM191.041 446V442.627C193.174 442.57 194.616 442.108 195.365 441.244C196.172 440.321 196.576 438.707 196.576 436.401V414.953C196.576 411.84 195.942 409.505 194.673 407.948C193.462 406.391 191.646 405.613 189.225 405.613C187.322 405.613 185.564 406.161 183.949 407.256C182.335 408.352 180.951 409.937 179.798 412.013V408.207C181.24 405.613 183.2 403.624 185.679 402.24C188.216 400.799 191.099 400.078 194.327 400.078C198.94 400.078 202.457 401.462 204.878 404.229C207.299 406.939 208.51 410.86 208.51 415.991V436.401C208.51 438.707 209.116 440.321 210.326 441.244C211.537 442.108 213.67 442.57 216.726 442.627V446C215.861 445.942 214.65 445.914 213.094 445.914C211.595 445.856 209.923 445.798 208.078 445.741C206.291 445.683 204.532 445.654 202.802 445.654C200.554 445.654 198.305 445.712 196.057 445.827C193.808 445.885 192.136 445.942 191.041 446ZM160.08 446V442.627C163.194 442.57 165.327 442.108 166.48 441.244C167.691 440.321 168.296 438.707 168.296 436.401V412.272C168.296 409.562 167.662 407.66 166.394 406.564C165.183 405.411 163.079 404.777 160.08 404.662V401.289C161.291 401.347 162.502 401.404 163.713 401.462C164.923 401.52 166.163 401.548 167.431 401.548C169.911 401.548 172.217 401.462 174.35 401.289C176.483 401.058 178.443 400.741 180.231 400.338V436.401C180.231 438.707 180.634 440.321 181.441 441.244C182.249 442.108 183.69 442.57 185.766 442.627V446C184.555 445.942 182.912 445.885 180.836 445.827C178.761 445.712 176.598 445.654 174.35 445.654C171.813 445.654 169.19 445.712 166.48 445.827C163.828 445.885 161.695 445.942 160.08 446ZM244.029 447.211C239.705 447.211 235.929 446.288 232.7 444.443C229.529 442.541 227.079 439.831 225.349 436.314C223.62 432.797 222.755 428.617 222.755 423.774C222.755 418.701 223.677 414.405 225.522 410.888C227.367 407.372 229.962 404.691 233.305 402.846C236.649 401.001 240.57 400.078 245.067 400.078C249.103 400.078 252.533 400.828 255.358 402.327C258.183 403.768 260.317 406.045 261.758 409.159C263.199 412.272 263.862 416.308 263.747 421.266H231.316L231.23 417.98H252.937C252.994 415.155 252.735 412.676 252.158 410.543C251.64 408.352 250.775 406.622 249.564 405.354C248.353 404.085 246.768 403.451 244.808 403.451C242.328 403.451 240.195 404.662 238.408 407.083C236.678 409.505 235.64 413.339 235.295 418.585L235.468 418.931C235.41 419.45 235.381 420.027 235.381 420.661C235.381 421.295 235.381 422.016 235.381 422.823C235.381 428.531 236.448 432.999 238.581 436.228C240.772 439.456 243.943 441.071 248.094 441.071C250.919 441.071 253.369 440.379 255.445 438.995C257.578 437.554 259.365 435.363 260.807 432.422L263.92 434.152C262.248 438.361 259.711 441.589 256.31 443.838C252.908 446.086 248.815 447.211 244.029 447.211ZM293.795 450.411L275.375 410.283C274.51 408.38 273.443 406.997 272.175 406.132C270.907 405.267 269.263 404.777 267.245 404.662V401.289C269.321 401.404 271.397 401.491 273.472 401.548C275.605 401.606 277.998 401.635 280.65 401.635C283.302 401.635 285.608 401.606 287.569 401.548C289.587 401.491 291.518 401.404 293.363 401.289V404.662C290.653 404.777 288.952 405.382 288.261 406.478C287.569 407.516 287.799 409.332 288.952 411.926L299.59 435.276L297.687 436.228L304.779 417.72C305.816 415.068 306.306 412.82 306.249 410.975C306.249 409.13 305.73 407.689 304.692 406.651C303.654 405.555 302.098 404.892 300.022 404.662V401.289C301.348 401.347 302.588 401.404 303.741 401.462C304.952 401.52 306.105 401.548 307.2 401.548C308.295 401.548 309.362 401.548 310.4 401.548C311.841 401.548 313.369 401.52 314.983 401.462C316.655 401.404 318.097 401.347 319.307 401.289V404.662C316.944 405.181 315.012 406.218 313.513 407.775C312.014 409.332 310.63 411.782 309.362 415.126L295.871 450.411H293.795ZM281.428 467.188C278.373 467.188 275.922 466.439 274.078 464.939C272.233 463.44 271.31 461.451 271.31 458.972C271.31 456.954 271.944 455.311 273.213 454.043C274.481 452.832 276.124 452.227 278.142 452.227C279.641 452.227 280.823 452.573 281.688 453.264C282.553 454.014 282.985 454.994 282.985 456.205C282.985 457.012 282.841 457.762 282.553 458.453C282.264 459.145 281.947 459.779 281.601 460.356C281.313 460.99 281.169 461.624 281.169 462.259C281.169 463.239 281.774 463.729 282.985 463.729C284.369 463.729 285.58 463.268 286.617 462.345C287.713 461.423 288.606 460.039 289.298 458.194L294.92 443.751L297.86 444.962L292.671 458.54C291.922 460.442 291.028 462.028 289.99 463.296C289.01 464.622 287.828 465.603 286.444 466.237C285.061 466.871 283.389 467.188 281.428 467.188Z" fill="#1A0830"/>
<path d="M320.854 446V442.627C323.506 442.512 325.466 442.281 326.735 441.935C328.061 441.532 328.926 440.84 329.329 439.86C329.79 438.822 330.021 437.265 330.021 435.19V395.581C330.021 393.506 329.79 391.978 329.329 390.998C328.926 389.96 328.061 389.239 326.735 388.836C325.466 388.432 323.506 388.201 320.854 388.144V384.771C321.604 384.829 322.612 384.886 323.881 384.944C325.149 384.944 326.735 384.944 328.637 384.944C330.598 384.944 332.875 384.944 335.469 384.944C339.275 384.944 342.417 384.944 344.896 384.944C347.433 384.886 349.364 384.857 350.69 384.857C358.704 384.857 364.816 386.414 369.024 389.527C373.233 392.583 375.337 397.023 375.337 402.846C375.337 406.881 374.3 410.341 372.224 413.223C370.149 416.106 367.151 418.326 363.23 419.883C359.31 421.382 354.582 422.131 349.047 422.131C347.836 422.131 346.626 422.102 345.415 422.045C344.204 421.929 343.08 421.785 342.042 421.612C341.004 421.382 340.111 421.18 339.361 421.007V417.634C340.457 417.98 341.696 418.268 343.08 418.499C344.521 418.672 346.02 418.758 347.577 418.758C352.42 418.758 355.966 417.519 358.214 415.04C360.463 412.503 361.587 408.553 361.587 403.192C361.587 398.003 360.578 394.197 358.56 391.776C356.6 389.354 353.515 388.144 349.306 388.144H343.166V434.93C343.166 437.064 343.426 438.678 343.945 439.773C344.521 440.811 345.645 441.532 347.317 441.935C349.047 442.339 351.613 442.57 355.014 442.627V446C353.919 445.942 352.477 445.914 350.69 445.914C348.903 445.856 346.827 445.827 344.464 445.827C342.157 445.769 339.649 445.741 336.94 445.741C333.48 445.741 330.425 445.769 327.773 445.827C325.12 445.885 322.814 445.942 320.854 446ZM413.635 391.202C411.991 391.202 410.239 392.203 408.38 394.204C406.593 396.135 404.806 398.744 403.018 402.033C401.303 405.321 399.73 409.003 398.3 413.078C396.942 417.153 395.834 421.371 394.976 425.732C394.189 430.022 393.796 434.132 393.796 438.064C393.796 440.638 394.082 442.497 394.654 443.641C395.297 444.785 396.227 445.357 397.442 445.357C399.086 445.357 400.802 444.427 402.589 442.568C404.377 440.638 406.128 438.064 407.844 434.847C409.56 431.63 411.097 428.02 412.455 424.016C413.885 419.941 415.029 415.723 415.887 411.362C416.745 407.001 417.174 402.783 417.174 398.708C417.174 395.706 416.852 393.704 416.209 392.703C415.637 391.702 414.779 391.202 413.635 391.202ZM379.426 429.807C379.426 426.519 379.855 423.015 380.713 419.298C381.642 415.58 383.037 411.934 384.895 408.36C386.754 404.785 389.042 401.568 391.759 398.708C394.547 395.777 397.8 393.454 401.517 391.738C405.306 389.951 409.524 389.057 414.171 389.057C419.676 389.057 423.93 390.558 426.932 393.561C430.006 396.564 431.544 400.96 431.544 406.751C431.544 410.04 431.079 413.543 430.149 417.26C429.292 420.978 427.933 424.624 426.074 428.199C424.216 431.773 421.892 435.026 419.104 437.957C416.387 440.817 413.134 443.14 409.345 444.928C405.628 446.643 401.446 447.501 396.799 447.501C391.294 447.501 387.004 446 383.93 442.997C380.928 439.995 379.426 435.598 379.426 429.807ZM478.009 390.558L477.687 392.703H440.476L441.012 390.558H478.009ZM452.487 436.885C451.986 438.744 452.022 440.102 452.594 440.96C453.237 441.818 454.167 442.247 455.382 442.247C456.883 442.247 458.385 441.496 459.886 439.995C461.387 438.493 462.71 436.17 463.854 433.024L465.462 428.628H467.5L465.355 434.847C463.925 439.137 461.816 442.318 459.028 444.391C456.311 446.465 453.059 447.501 449.27 447.501C445.981 447.501 443.443 446.751 441.656 445.249C439.868 443.748 438.796 441.711 438.439 439.137C438.153 436.492 438.439 433.596 439.296 430.451L455.382 374.58C458.456 374.508 461.244 374.365 463.747 374.151C466.249 373.937 468.644 373.579 470.931 373.079L452.487 436.885Z" fill="#DE909F"/>
<path d="M113.238 495.032C112.896 495.032 112.592 495.004 112.325 494.947C112.057 494.896 111.872 494.845 111.77 494.793L112.282 493.019C112.771 493.144 113.203 493.189 113.579 493.155C113.954 493.121 114.287 492.953 114.577 492.652C114.873 492.356 115.143 491.875 115.388 491.209L115.763 490.185L110.917 477.01H113.101L116.719 487.455H116.856L120.474 477.01H122.658L117.095 492.029C116.844 492.706 116.534 493.266 116.165 493.71C115.795 494.159 115.365 494.492 114.876 494.708C114.392 494.924 113.846 495.032 113.238 495.032ZM130.172 490.39C128.989 490.39 127.95 490.109 127.057 489.545C126.17 488.982 125.476 488.194 124.975 487.182C124.48 486.169 124.233 484.986 124.233 483.632C124.233 482.267 124.48 481.075 124.975 480.056C125.476 479.038 126.17 478.247 127.057 477.684C127.95 477.121 128.989 476.839 130.172 476.839C131.355 476.839 132.391 477.121 133.278 477.684C134.171 478.247 134.865 479.038 135.36 480.056C135.861 481.075 136.111 482.267 136.111 483.632C136.111 484.986 135.861 486.169 135.36 487.182C134.865 488.194 134.171 488.982 133.278 489.545C132.391 490.109 131.355 490.39 130.172 490.39ZM130.172 488.581C131.071 488.581 131.81 488.351 132.391 487.89C132.971 487.429 133.4 486.823 133.679 486.072C133.958 485.321 134.097 484.508 134.097 483.632C134.097 482.756 133.958 481.939 133.679 481.183C133.4 480.426 132.971 479.815 132.391 479.348C131.81 478.882 131.071 478.648 130.172 478.648C129.273 478.648 128.534 478.882 127.953 479.348C127.373 479.815 126.943 480.426 126.665 481.183C126.386 481.939 126.247 482.756 126.247 483.632C126.247 484.508 126.386 485.321 126.665 486.072C126.943 486.823 127.373 487.429 127.953 487.89C128.534 488.351 129.273 488.581 130.172 488.581ZM147.445 484.758V477.01H149.459V490.117H147.445V487.899H147.309C147.002 488.564 146.524 489.13 145.875 489.597C145.227 490.057 144.408 490.288 143.418 490.288C142.599 490.288 141.87 490.109 141.233 489.75C140.596 489.386 140.095 488.84 139.731 488.112C139.367 487.378 139.185 486.454 139.185 485.339V477.01H141.199V485.202C141.199 486.158 141.466 486.92 142.001 487.489C142.542 488.058 143.23 488.342 144.066 488.342C144.567 488.342 145.076 488.214 145.594 487.958C146.117 487.702 146.555 487.31 146.908 486.781C147.266 486.252 147.445 485.577 147.445 484.758ZM153.148 490.117V477.01H155.093V478.99H155.23C155.469 478.341 155.901 477.815 156.527 477.411C157.153 477.007 157.858 476.805 158.643 476.805C158.791 476.805 158.976 476.808 159.198 476.814C159.42 476.819 159.588 476.828 159.701 476.839V478.887C159.633 478.87 159.477 478.845 159.232 478.811C158.993 478.771 158.74 478.751 158.473 478.751C157.835 478.751 157.267 478.885 156.766 479.152C156.271 479.414 155.878 479.778 155.588 480.244C155.304 480.705 155.162 481.231 155.162 481.823V490.117H153.148ZM174.342 490.39C173.079 490.39 171.99 490.111 171.074 489.554C170.164 488.991 169.461 488.206 168.966 487.199C168.477 486.186 168.232 485.009 168.232 483.666C168.232 482.323 168.477 481.14 168.966 480.116C169.461 479.087 170.15 478.284 171.031 477.71C171.919 477.13 172.954 476.839 174.138 476.839C174.82 476.839 175.494 476.953 176.16 477.181C176.825 477.408 177.431 477.778 177.977 478.29C178.524 478.796 178.959 479.468 179.283 480.304C179.607 481.14 179.769 482.17 179.769 483.393V484.246H169.666V482.506H177.721C177.721 481.766 177.574 481.106 177.278 480.526C176.988 479.946 176.572 479.488 176.032 479.152C175.497 478.816 174.866 478.648 174.138 478.648C173.335 478.648 172.641 478.848 172.055 479.246C171.475 479.638 171.029 480.15 170.716 480.782C170.403 481.413 170.246 482.09 170.246 482.813V483.973C170.246 484.963 170.417 485.802 170.758 486.491C171.105 487.173 171.586 487.694 172.2 488.052C172.815 488.405 173.529 488.581 174.342 488.581C174.871 488.581 175.349 488.507 175.776 488.359C176.208 488.206 176.581 487.978 176.894 487.677C177.207 487.369 177.448 486.988 177.619 486.533L179.565 487.079C179.36 487.739 179.016 488.32 178.532 488.82C178.049 489.315 177.451 489.702 176.74 489.981C176.029 490.254 175.23 490.39 174.342 490.39ZM184.847 482.232V490.117H182.833V477.01H184.778V479.058H184.949C185.256 478.392 185.723 477.858 186.349 477.454C186.974 477.044 187.782 476.839 188.772 476.839C189.66 476.839 190.436 477.021 191.102 477.386C191.767 477.744 192.285 478.29 192.655 479.024C193.024 479.752 193.209 480.674 193.209 481.789V490.117H191.196V481.925C191.196 480.896 190.928 480.093 190.393 479.519C189.859 478.939 189.125 478.648 188.192 478.648C187.549 478.648 186.974 478.788 186.468 479.067C185.967 479.345 185.572 479.752 185.282 480.287C184.992 480.822 184.847 481.47 184.847 482.232ZM202.214 490.39C200.985 490.39 199.927 490.1 199.04 489.52C198.152 488.94 197.47 488.14 196.992 487.122C196.514 486.104 196.275 484.94 196.275 483.632C196.275 482.301 196.52 481.126 197.009 480.108C197.504 479.084 198.192 478.284 199.074 477.71C199.961 477.13 200.997 476.839 202.18 476.839C203.102 476.839 203.932 477.01 204.672 477.351C205.411 477.693 206.017 478.171 206.489 478.785C206.961 479.399 207.254 480.116 207.368 480.935H205.354C205.201 480.338 204.859 479.809 204.33 479.348C203.807 478.882 203.102 478.648 202.214 478.648C201.429 478.648 200.741 478.853 200.149 479.263C199.563 479.667 199.105 480.238 198.775 480.978C198.451 481.712 198.289 482.574 198.289 483.564C198.289 484.576 198.448 485.458 198.767 486.209C199.091 486.96 199.546 487.543 200.132 487.958C200.724 488.374 201.418 488.581 202.214 488.581C202.738 488.581 203.213 488.49 203.639 488.308C204.066 488.126 204.427 487.864 204.723 487.523C205.019 487.182 205.229 486.772 205.354 486.294H207.368C207.254 487.068 206.973 487.765 206.523 488.385C206.08 488.999 205.491 489.489 204.757 489.853C204.029 490.211 203.181 490.39 202.214 490.39ZM212.326 482.232V490.117H210.312V472.641H212.326V479.058H212.497C212.804 478.381 213.265 477.843 213.879 477.445C214.499 477.041 215.324 476.839 216.354 476.839C217.247 476.839 218.029 477.019 218.7 477.377C219.372 477.73 219.892 478.273 220.262 479.007C220.637 479.735 220.825 480.662 220.825 481.789V490.117H218.811V481.925C218.811 480.884 218.541 480.079 218.001 479.51C217.466 478.936 216.724 478.648 215.774 478.648C215.114 478.648 214.522 478.788 213.999 479.067C213.481 479.345 213.071 479.752 212.77 480.287C212.474 480.822 212.326 481.47 212.326 482.232ZM228.366 490.424C227.536 490.424 226.782 490.268 226.105 489.955C225.428 489.636 224.891 489.179 224.492 488.581C224.094 487.978 223.895 487.25 223.895 486.397C223.895 485.646 224.043 485.037 224.339 484.571C224.635 484.098 225.03 483.729 225.525 483.461C226.02 483.194 226.566 482.995 227.163 482.864C227.766 482.727 228.372 482.619 228.981 482.54C229.777 482.437 230.423 482.36 230.918 482.309C231.419 482.252 231.783 482.158 232.01 482.028C232.243 481.897 232.36 481.669 232.36 481.345V481.277C232.36 480.435 232.13 479.781 231.669 479.314C231.214 478.848 230.523 478.614 229.595 478.614C228.634 478.614 227.88 478.825 227.334 479.246C226.788 479.667 226.404 480.116 226.182 480.594L224.271 479.911C224.612 479.115 225.067 478.495 225.636 478.051C226.21 477.602 226.836 477.289 227.513 477.112C228.196 476.93 228.867 476.839 229.527 476.839C229.948 476.839 230.432 476.891 230.978 476.993C231.529 477.09 232.061 477.292 232.573 477.599C233.091 477.906 233.521 478.37 233.862 478.99C234.203 479.61 234.374 480.44 234.374 481.482V490.117H232.36V488.342H232.258C232.121 488.627 231.894 488.931 231.575 489.255C231.256 489.58 230.833 489.856 230.304 490.083C229.774 490.311 229.129 490.424 228.366 490.424ZM228.674 488.615C229.47 488.615 230.141 488.459 230.688 488.146C231.239 487.833 231.655 487.429 231.933 486.934C232.218 486.439 232.36 485.919 232.36 485.373V483.529C232.275 483.632 232.087 483.726 231.797 483.811C231.512 483.891 231.182 483.962 230.807 484.024C230.437 484.081 230.076 484.133 229.723 484.178C229.376 484.218 229.095 484.252 228.878 484.28C228.355 484.349 227.866 484.46 227.411 484.613C226.961 484.761 226.597 484.986 226.319 485.287C226.045 485.583 225.909 485.987 225.909 486.499C225.909 487.199 226.168 487.728 226.685 488.086C227.209 488.439 227.872 488.615 228.674 488.615ZM240.063 482.232V490.117H238.05V477.01H239.995V479.058H240.166C240.473 478.392 240.94 477.858 241.565 477.454C242.191 477.044 242.999 476.839 243.989 476.839C244.876 476.839 245.653 477.021 246.318 477.386C246.984 477.744 247.502 478.29 247.871 479.024C248.241 479.752 248.426 480.674 248.426 481.789V490.117H246.412V481.925C246.412 480.896 246.145 480.093 245.61 479.519C245.075 478.939 244.342 478.648 243.409 478.648C242.766 478.648 242.191 478.788 241.685 479.067C241.184 479.345 240.789 479.752 240.499 480.287C240.209 480.822 240.063 481.47 240.063 482.232ZM257.806 477.01V478.717H251.014V477.01H257.806ZM252.994 473.87H255.007V486.363C255.007 486.931 255.09 487.358 255.255 487.643C255.426 487.921 255.642 488.109 255.903 488.206C256.171 488.297 256.452 488.342 256.748 488.342C256.97 488.342 257.152 488.331 257.294 488.308C257.437 488.28 257.55 488.257 257.636 488.24L258.045 490.049C257.909 490.1 257.718 490.151 257.473 490.203C257.229 490.259 256.919 490.288 256.543 490.288C255.974 490.288 255.417 490.166 254.871 489.921C254.33 489.676 253.881 489.304 253.523 488.803C253.17 488.302 252.994 487.671 252.994 486.909V473.87ZM266.19 490.39C264.927 490.39 263.838 490.111 262.922 489.554C262.012 488.991 261.309 488.206 260.814 487.199C260.325 486.186 260.08 485.009 260.08 483.666C260.08 482.323 260.325 481.14 260.814 480.116C261.309 479.087 261.998 478.284 262.879 477.71C263.767 477.13 264.802 476.839 265.985 476.839C266.668 476.839 267.342 476.953 268.008 477.181C268.673 477.408 269.279 477.778 269.825 478.29C270.372 478.796 270.807 479.468 271.131 480.304C271.455 481.14 271.617 482.17 271.617 483.393V484.246H261.514V482.506H269.569C269.569 481.766 269.422 481.106 269.126 480.526C268.836 479.946 268.42 479.488 267.88 479.152C267.345 478.816 266.714 478.648 265.985 478.648C265.183 478.648 264.489 478.848 263.903 479.246C263.323 479.638 262.876 480.15 262.564 480.782C262.251 481.413 262.094 482.09 262.094 482.813V483.973C262.094 484.963 262.265 485.802 262.606 486.491C262.953 487.173 263.434 487.694 264.048 488.052C264.663 488.405 265.377 488.581 266.19 488.581C266.719 488.581 267.197 488.507 267.624 488.359C268.056 488.206 268.429 487.978 268.742 487.677C269.055 487.369 269.296 486.988 269.467 486.533L271.413 487.079C271.208 487.739 270.864 488.32 270.38 488.82C269.897 489.315 269.299 489.702 268.588 489.981C267.877 490.254 267.078 490.39 266.19 490.39ZM279.63 490.39C278.538 490.39 277.574 490.114 276.737 489.563C275.901 489.005 275.247 488.22 274.775 487.207C274.303 486.189 274.066 484.986 274.066 483.598C274.066 482.221 274.303 481.026 274.775 480.014C275.247 479.001 275.904 478.219 276.746 477.667C277.588 477.115 278.561 476.839 279.664 476.839C280.518 476.839 281.192 476.982 281.687 477.266C282.187 477.545 282.568 477.863 282.83 478.222C283.098 478.575 283.305 478.865 283.453 479.092H283.624V472.641H285.638V490.117H283.692V488.103H283.453C283.305 488.342 283.095 488.644 282.822 489.008C282.549 489.366 282.159 489.688 281.653 489.972C281.146 490.251 280.472 490.39 279.63 490.39ZM279.903 488.581C280.711 488.581 281.394 488.371 281.951 487.95C282.509 487.523 282.933 486.934 283.223 486.183C283.513 485.427 283.658 484.553 283.658 483.564C283.658 482.585 283.516 481.729 283.231 480.995C282.947 480.256 282.526 479.681 281.968 479.271C281.411 478.856 280.722 478.648 279.903 478.648C279.05 478.648 278.339 478.867 277.77 479.306C277.207 479.738 276.783 480.327 276.498 481.072C276.22 481.811 276.08 482.642 276.08 483.564C276.08 484.497 276.223 485.344 276.507 486.107C276.797 486.863 277.224 487.466 277.787 487.916C278.356 488.359 279.061 488.581 279.903 488.581ZM302.064 477.01V478.717H295.272V477.01H302.064ZM297.251 473.87H299.265V486.363C299.265 486.931 299.348 487.358 299.513 487.643C299.683 487.921 299.9 488.109 300.161 488.206C300.429 488.297 300.71 488.342 301.006 488.342C301.228 488.342 301.41 488.331 301.552 488.308C301.694 488.28 301.808 488.257 301.893 488.24L302.303 490.049C302.167 490.1 301.976 490.151 301.731 490.203C301.487 490.259 301.177 490.288 300.801 490.288C300.232 490.288 299.675 490.166 299.129 489.921C298.588 489.676 298.139 489.304 297.78 488.803C297.428 488.302 297.251 487.671 297.251 486.909V473.87ZM305.093 490.117V477.01H307.039V478.99H307.176C307.415 478.341 307.847 477.815 308.473 477.411C309.098 477.007 309.804 476.805 310.589 476.805C310.737 476.805 310.922 476.808 311.144 476.814C311.365 476.819 311.533 476.828 311.647 476.839V478.887C311.579 478.87 311.422 478.845 311.178 478.811C310.939 478.771 310.686 478.751 310.418 478.751C309.781 478.751 309.212 478.885 308.712 479.152C308.217 479.414 307.824 479.778 307.534 480.244C307.25 480.705 307.107 481.231 307.107 481.823V490.117H305.093ZM319.131 490.39C317.868 490.39 316.778 490.111 315.862 489.554C314.952 488.991 314.25 488.206 313.755 487.199C313.265 486.186 313.021 485.009 313.021 483.666C313.021 482.323 313.265 481.14 313.755 480.116C314.25 479.087 314.938 478.284 315.82 477.71C316.707 477.13 317.743 476.839 318.926 476.839C319.609 476.839 320.283 476.953 320.948 477.181C321.614 477.408 322.22 477.778 322.766 478.29C323.312 478.796 323.747 479.468 324.071 480.304C324.396 481.14 324.558 482.17 324.558 483.393V484.246H314.454V482.506H322.51C322.51 481.766 322.362 481.106 322.066 480.526C321.776 479.946 321.361 479.488 320.82 479.152C320.286 478.816 319.654 478.648 318.926 478.648C318.124 478.648 317.43 478.848 316.844 479.246C316.264 479.638 315.817 480.15 315.504 480.782C315.191 481.413 315.035 482.09 315.035 482.813V483.973C315.035 484.963 315.205 485.802 315.547 486.491C315.894 487.173 316.374 487.694 316.989 488.052C317.603 488.405 318.317 488.581 319.131 488.581C319.66 488.581 320.138 488.507 320.564 488.359C320.997 488.206 321.369 487.978 321.682 487.677C321.995 487.369 322.237 486.988 322.407 486.533L324.353 487.079C324.148 487.739 323.804 488.32 323.321 488.82C322.837 489.315 322.24 489.702 321.529 489.981C320.817 490.254 320.018 490.39 319.131 490.39ZM331.478 490.424C330.648 490.424 329.894 490.268 329.217 489.955C328.54 489.636 328.002 489.179 327.604 488.581C327.206 487.978 327.007 487.25 327.007 486.397C327.007 485.646 327.155 485.037 327.451 484.571C327.746 484.098 328.142 483.729 328.637 483.461C329.132 483.194 329.678 482.995 330.275 482.864C330.878 482.727 331.484 482.619 332.093 482.54C332.889 482.437 333.535 482.36 334.03 482.309C334.53 482.252 334.895 482.158 335.122 482.028C335.355 481.897 335.472 481.669 335.472 481.345V481.277C335.472 480.435 335.242 479.781 334.781 479.314C334.326 478.848 333.634 478.614 332.707 478.614C331.746 478.614 330.992 478.825 330.446 479.246C329.9 479.667 329.516 480.116 329.294 480.594L327.382 479.911C327.724 479.115 328.179 478.495 328.748 478.051C329.322 477.602 329.948 477.289 330.625 477.112C331.308 476.93 331.979 476.839 332.639 476.839C333.06 476.839 333.543 476.891 334.09 476.993C334.641 477.09 335.173 477.292 335.685 477.599C336.203 477.906 336.632 478.37 336.974 478.99C337.315 479.61 337.486 480.44 337.486 481.482V490.117H335.472V488.342H335.37C335.233 488.627 335.005 488.931 334.687 489.255C334.368 489.58 333.944 489.856 333.415 490.083C332.886 490.311 332.241 490.424 331.478 490.424ZM331.786 488.615C332.582 488.615 333.253 488.459 333.799 488.146C334.351 487.833 334.767 487.429 335.045 486.934C335.33 486.439 335.472 485.919 335.472 485.373V483.529C335.387 483.632 335.199 483.726 334.909 483.811C334.624 483.891 334.294 483.962 333.919 484.024C333.549 484.081 333.188 484.133 332.835 484.178C332.488 484.218 332.207 484.252 331.99 484.28C331.467 484.349 330.978 484.46 330.523 484.613C330.073 484.761 329.709 484.986 329.43 485.287C329.157 485.583 329.021 485.987 329.021 486.499C329.021 487.199 329.28 487.728 329.797 488.086C330.321 488.439 330.983 488.615 331.786 488.615ZM350.446 479.946L348.637 480.458C348.523 480.156 348.355 479.863 348.133 479.579C347.917 479.288 347.621 479.05 347.246 478.862C346.87 478.674 346.39 478.58 345.804 478.58C345.001 478.58 344.333 478.765 343.798 479.135C343.269 479.499 343.005 479.963 343.005 480.526C343.005 481.026 343.187 481.422 343.551 481.712C343.915 482.002 344.484 482.244 345.257 482.437L347.203 482.915C348.375 483.2 349.248 483.635 349.823 484.221C350.397 484.801 350.685 485.549 350.685 486.465C350.685 487.216 350.468 487.887 350.036 488.479C349.609 489.07 349.012 489.537 348.244 489.878C347.476 490.22 346.583 490.39 345.565 490.39C344.228 490.39 343.121 490.1 342.245 489.52C341.369 488.94 340.814 488.092 340.581 486.977L342.493 486.499C342.675 487.204 343.019 487.734 343.525 488.086C344.037 488.439 344.706 488.615 345.531 488.615C346.469 488.615 347.214 488.416 347.766 488.018C348.324 487.614 348.603 487.131 348.603 486.567C348.603 486.112 348.443 485.731 348.125 485.424C347.806 485.111 347.317 484.878 346.657 484.724L344.472 484.212C343.272 483.928 342.39 483.487 341.827 482.89C341.27 482.286 340.991 481.533 340.991 480.628C340.991 479.889 341.198 479.234 341.614 478.666C342.035 478.097 342.606 477.65 343.329 477.326C344.057 477.002 344.882 476.839 345.804 476.839C347.101 476.839 348.119 477.124 348.859 477.693C349.604 478.262 350.133 479.013 350.446 479.946ZM361.976 484.758V477.01H363.99V490.117H361.976V487.899H361.84C361.533 488.564 361.055 489.13 360.406 489.597C359.758 490.057 358.938 490.288 357.949 490.288C357.129 490.288 356.401 490.109 355.764 489.75C355.127 489.386 354.626 488.84 354.262 488.112C353.898 487.378 353.716 486.454 353.716 485.339V477.01H355.73V485.202C355.73 486.158 355.997 486.92 356.532 487.489C357.073 488.058 357.761 488.342 358.597 488.342C359.098 488.342 359.607 488.214 360.125 487.958C360.648 487.702 361.086 487.31 361.439 486.781C361.797 486.252 361.976 485.577 361.976 484.758ZM367.679 490.117V477.01H369.624V478.99H369.761C370 478.341 370.432 477.815 371.058 477.411C371.684 477.007 372.389 476.805 373.174 476.805C373.322 476.805 373.507 476.808 373.729 476.814C373.951 476.819 374.118 476.828 374.232 476.839V478.887C374.164 478.87 374.008 478.845 373.763 478.811C373.524 478.771 373.271 478.751 373.003 478.751C372.366 478.751 371.797 478.885 371.297 479.152C370.802 479.414 370.409 479.778 370.119 480.244C369.835 480.705 369.693 481.231 369.693 481.823V490.117H367.679ZM378.315 495.032C377.974 495.032 377.67 495.004 377.402 494.947C377.135 494.896 376.95 494.845 376.848 494.793L377.36 493.019C377.849 493.144 378.281 493.189 378.657 493.155C379.032 493.121 379.365 492.953 379.655 492.652C379.951 492.356 380.221 491.875 380.466 491.209L380.841 490.185L375.994 477.01H378.179L381.797 487.455H381.933L385.552 477.01H387.736L382.172 492.029C381.922 492.706 381.612 493.266 381.242 493.71C380.873 494.159 380.443 494.492 379.954 494.708C379.47 494.924 378.924 495.032 378.315 495.032Z" fill="#1A0830"/>
<path d="M286.775 194.054H212.501C200.437 194.054 190.656 203.834 190.656 215.899V220.268C190.656 232.333 200.437 242.113 212.501 242.113H286.775C298.84 242.113 308.62 232.333 308.62 220.268V215.899C308.62 203.834 298.84 194.054 286.775 194.054Z" fill="#1A0830"/>
<path d="M164.443 237.744C160.073 266.871 158.617 293.085 160.073 316.387C164.443 348.426 194.298 364.446 249.639 364.446C304.98 364.446 334.835 348.426 339.204 316.387C340.66 293.085 339.204 266.871 334.835 237.744H164.443Z" fill="#1A0830"/>
<path d="M304.248 172.208H195.022C186.577 172.208 179.73 179.054 179.73 187.5C179.73 195.945 186.577 202.791 195.022 202.791H304.248C312.693 202.791 319.54 195.945 319.54 187.5C319.54 179.054 312.693 172.208 304.248 172.208Z" fill="#1A0830"/>
<path opacity="0.18" d="M176.092 274.88C173.18 296.725 172.452 314.929 173.908 329.493C178.277 346.969 203.763 355.707 250.366 355.707C296.969 355.707 322.455 346.969 326.824 329.493C328.281 314.929 327.552 296.725 324.64 274.88H176.092Z" fill="#FFE566"/>
<path d="M254.006 84.8281H245.268C241.649 84.8281 238.715 87.7623 238.715 91.3817V170.024C238.715 173.644 241.649 176.578 245.268 176.578H254.006C257.626 176.578 260.56 173.644 260.56 170.024V91.3817C260.56 87.7623 257.626 84.8281 254.006 84.8281Z" fill="#1A0830"/>
<path d="M262.745 54.2441H236.531C231.705 54.2441 227.793 58.1563 227.793 62.9822V84.8274C227.793 89.6533 231.705 93.5655 236.531 93.5655H262.745C267.571 93.5655 271.483 89.6533 271.483 84.8274V62.9822C271.483 58.1563 267.571 54.2441 262.745 54.2441Z" fill="#1A0830"/>
<path d="M221.238 58.6127C240.171 26.5731 259.103 26.5731 278.036 58.6127H221.238Z" fill="#DE909F"/>
<path d="M251.385 5.96607C251.385 4.88024 250.505 4 249.419 4C248.333 4 247.453 4.88024 247.453 5.96607V23.8791C247.453 24.965 248.333 25.8452 249.419 25.8452C250.505 25.8452 251.385 24.965 251.385 23.8791V5.96607Z" fill="#1A0830"/>
<path d="M251.383 6.18555L267.111 13.8314L251.383 21.4772V6.18555Z" fill="#1A0830"/>
<path opacity="0.5" d="M256.189 70.7843C256.189 66.4754 253.255 62.9824 249.636 62.9824C246.016 62.9824 243.082 66.4754 243.082 70.7843V77.0258C243.082 81.3346 246.016 84.8276 249.636 84.8276C253.255 84.8276 256.189 81.3346 256.189 77.0258V70.7843Z" fill="#FFE566"/>
<path d="M201.579 121.964L203.982 130.483L212.501 132.886L203.982 135.289L201.579 143.809L199.176 135.289L190.656 132.886L199.176 130.483L201.579 121.964Z" fill="#DE909F"/>
<path d="M310.801 28.0303L312.767 34.8023L319.539 36.7684L312.767 38.7344L310.801 45.5064L308.835 38.7344L302.062 36.7684L308.835 34.8023L310.801 28.0303Z" fill="#DE909F"/>
<path d="M202.673 211.529C192.835 220.267 189.545 203.883 195.018 203.883H304.245C306.429 203.883 307.281 207.412 307.522 208.252C309.706 215.898 307.522 209.344 303.153 211.529C298.783 213.713 295.515 212.621 287.869 209.344C280.223 206.067 280.223 209.344 272.578 211.529C264.932 213.713 264.932 211.529 257.286 209.344C249.64 207.16 247.456 209.344 241.994 211.529C236.533 213.713 228.887 211.529 222.334 209.344C215.78 207.16 207.64 207.117 202.673 211.529Z" fill="#FFD81B" stroke="#FFD81B" stroke-width="2.18452"/>
</svg>
